<?xml version="1.0" encoding="UTF-8"?>
<svg width="90pt" version="1.1" xmlns="http://www.w3.org/2000/svg" height="140pt" viewBox="0 0 90 140" xmlns:xlink="http://www.w3.org/1999/xlink">
 <defs>
  <clipPath id="Clip0">
   <path d="M0 0 L67.9 0 L67.9 130.5 L0 130.5 L0 0 Z" transform="translate(9.5, 3.55271e-15)"/>
  </clipPath>
  <clipPath id="Clip1">
   <path d="M0 0 L67.9 0 L67.9 130.5 L0 130.5 L0 0 Z" transform="translate(9.5, 3.55271e-15)"/>
  </clipPath>
  <clipPath id="Clip2">
   <path d="M0 0 L86.9191 0 L86.9191 26.9924 L0 26.9924 L0 0 Z" transform="translate(0.573125, 113)"/>
  </clipPath>
 </defs>
 <g id="Background">
  <g id="Group4" clip-path="url(#Clip0)">
   <g id="Group3" clip-path="url(#Clip1)">
    <path style="fill:#F17720; fill-rule:nonzero;stroke:none;" d="M36.8 1 C36.8 1.5 36.3 1.6 35.8 1.3 C35.2 0.9 33.6 1.4 32.3 2.2 C30.9 3.1 29.8 3.4 29.8 2.8 C29.8 1.4 27.6 1.6 24 3.4 C22.2 4.2 20.4 4.7 19.8 4.3 C19.3 4 18.8 4.1 18.8 4.7 C18.8 5.3 17.8 6 16.6 6.3 C14 7 4.6 20.3 2.9 25.9 C2.3 27.9 1.8 34.1 1.9 39.7 C2 46 1.6 50.4 0.9 51.2 C0 52.3 0.1 53.4 1.2 56 L2.6 59.3 L2.7 56 C2.8 54.1 3.2 52.9 3.8 53.3 C5.1 54.1 6.1 48.9 7.6 32.5 C8.3 24.9 8.8 23.4 11.2 20.9 C13.5 18.5 21.6 15.1 24 15.6 C31.9 17.2 37.8 18 44.3 18.5 C57.5 19.4 60.1 21.8 59.7 32.6 C59.6 36.3 60 41.8 60.6 44.8 C61.3 47.8 61.9 53.6 62.1 57.5 C62.2 61.5 62.4 64.8 62.6 64.8 C62.8 64.8 63.8 62.7 65 60.2 C66.8 56.1 66.9 55.1 65.8 51.7 C64.8 48.8 64.8 46.8 65.6 43.6 C67.8 34.7 67.9 31.2 65.7 25.7 C60.5 12.4 58.1 8.8 53.9 8.8 C51.9 8.8 51.8 8.6 52.8 7.3 C53.8 6.1 53.8 5.8 52.5 5.8 C51.7 5.8 50.8 5.2 50.5 4.5 C50.2 3.6 49.8 3.6 48.5 4.7 C47 5.9 46.8 5.8 46.8 4.4 C46.8 3.5 46.1 2.8 45.3 2.8 C44.5 2.8 43.8 2.3 43.8 1.7 C43.8 1.2 43.4 1 42.8 1.3 C42.3 1.6 41.8 1.5 41.8 1 C41.8 0.5 40.7 0 39.3 0 C37.9 0 36.8 0.5 36.8 1 Z" transform="translate(9.5, 3.55271e-15)"/>
    <path style="fill:#F17720; fill-rule:nonzero;stroke:none;" d="M8.8 0.7 C4 1.3 0 3.9 0 6.5 C0 7.5 0.6 7.7 2.3 7.2 C6.8 5.7 11.3 5.4 10.6 6.6 C10.2 7.2 9.1 7.7 8.1 7.7 C6.2 7.7 1 11.3 1 12.6 C1 13 2.6 13.3 4.6 13.3 C6.5 13.3 8.5 13.9 8.9 14.6 C10.4 16.9 16.2 14.1 19.3 9.6 C22.1 5.6 22.2 5.5 24.1 7.3 C25.2 8.3 26 10.2 25.9 11.7 C25.7 16.3 25.9 17 27.8 16.2 C28.7 15.7 31.5 15.3 34 15.1 C36.5 14.9 39.4 14.7 40.5 14.6 C41.6 14.5 43.3 14.7 44.3 15.2 C45.4 15.7 46 15.5 46 14.5 C46 11.7 43.3 9.5 38.4 8.2 C33.7 6.9 33.7 6.8 37 6.8 C38.9 6.7 41.8 7.4 43.4 8.2 C47.8 10.5 49 8.5 45.4 4.9 C43.3 2.9 41 1.8 37.7 1.3 C32.6 0.5 30.3 0.9 25.3 3.5 C22.3 5 22 5 20.3 3.5 C17.5 0.9 13.9 0 8.8 0.7 Z" transform="translate(20.3, 37.1)"/>
    <path style="fill:#F17720; fill-rule:nonzero;stroke:none;" d="M12.2 4.1 C10.6 5.9 7.8 8.7 6 10.2 C2.6 13.1 2.6 14.3 5.9 15.2 C7.4 15.6 8.7 14.7 11.1 11.3 C12.8 8.9 14.7 6.9 15.3 6.9 C17.5 6.9 18.6 8.5 18.5 11.4 C18.4 13.9 17.9 14.4 15.1 15 C12.4 15.5 12.1 15.4 13 14.3 C13.8 13.3 13.8 12.9 13 12.9 C11.8 12.9 9.5 17.8 7.2 25.2 C5.9 29.5 5.9 30.3 7.3 32.4 C8.2 33.8 8.9 35.6 8.9 36.6 C8.9 37.5 10.1 40 11.5 42 C15.3 47.5 13.5 48.9 8.7 44.2 C4.2 39.9 2.3 36.7 0.9 31.2 L0 27.4 L0.3 31.4 C0.7 35.9 6.1 49.4 8.6 52.2 C9.5 53.2 10.8 53.8 11.5 53.5 C12.2 53.2 14.9 53.7 17.5 54.5 C20.5 55.4 24 55.7 26.6 55.3 C28.9 55 31.2 55 31.8 55.3 C33 56.1 31.7 60.6 28.7 66.3 C25.3 72.6 28.3 69.6 32.5 62.3 C34.6 58.7 37.3 54.9 38.4 54 C40.6 52.3 47.3 39.2 48.3 34.7 C48.6 33.3 48.5 31 48 29.7 C47.3 28 47 27.9 47 29.1 C46.9 31.8 44 31.2 43.3 28.4 C43 27 42.3 25.9 41.8 25.9 C41.3 25.9 40.9 25.3 40.9 24.7 C40.9 21.9 37.3 14.9 35.9 14.9 C33.8 14.9 31.9 12.9 31.9 10.7 C31.9 7.6 35.6 8.6 37.9 12.4 C40 15.8 42.9 17.1 42.9 14.6 C42.9 12.8 34.9 3.8 33.6 4.1 C32.9 4.2 30.8 4 28.9 3.6 C26.9 3.2 23.1 3.3 20.5 3.8 C16.1 4.6 15.8 4.5 16.2 2.8 C16.9 0 15.6 0.5 12.2 4.1 Z M17.1 22.8 C16.4 26 20 27.9 26.5 27.9 C30 27.9 33.1 28.3 33.4 28.9 C33.7 29.4 33.4 29.9 32.7 29.9 C31.8 29.9 31.7 30.2 32.5 30.7 C33.1 31.1 33.6 32.7 33.5 34.4 C33.4 37 32.9 37.4 29.5 38.1 C26.7 38.7 25.3 38.6 24.8 37.7 C24.2 36.8 23.6 36.9 22.2 38.1 C20.6 39.5 20 39.5 16 37.8 C12.7 36.3 11.8 35.5 12.3 34.2 C12.7 33.3 12.4 32.2 11.7 31.7 C10.8 31.2 10.9 30.9 12.3 30.9 C13.9 30.9 14 30.7 12.8 29.3 C11.5 27.8 11.4 23.5 12.6 21.6 C13.4 20.3 17.4 21.3 17.1 22.8 Z" transform="translate(18.4, 57.9)"/>
   </g>
  </g>
  <g id="Group8" clip-path="url(#Clip2)">
   <path style="fill:#ffffff; fill-rule:evenodd;stroke:none;" id="Text28+0" d="M11.9688 0.252655 C11.9688 0.252655 12.8105 0 13.4476 0.0949984 C13.4476 0.0949984 14.0847 0.189323 14.6082 0.36854 C14.6082 0.36854 15.1317 0.547757 15.4273 0.989735 C15.4273 0.989735 15.723 1.43171 15.814 1.97947 C15.814 1.97947 15.905 2.52655 15.6545 3.01098 C15.6545 3.01098 15.4048 3.4954 15.0633 3.85316 C15.0633 3.85316 14.7218 4.21092 14.4371 4.6428 C14.4371 4.6428 14.1531 5.07399 13.618 5.23232 C13.618 5.23232 13.0835 5.38998 12.8447 5.23232 C12.8447 5.23232 12.6059 5.07399 13.1178 3.90572 C13.1178 3.90572 13.6296 2.73744 13.1629 2.55822 C13.1629 2.55822 12.6969 2.379 12.0707 2.53733 C12.0707 2.53733 11.4453 2.69499 10.273 3.69551 C10.273 3.69551 9.10146 4.69535 8.32747 6.01118 C8.32747 6.01118 7.55421 7.32701 7.4064 8.15908 C7.4064 8.15908 7.2586 8.99049 7.33796 9.80101 C7.33796 9.80101 7.41805 10.6115 7.6343 11.8223 C7.6343 11.8223 7.85055 13.033 8.08938 13.991 C8.08938 13.991 8.3282 14.9491 8.15709 16.5075 C8.15709 16.5075 7.98671 18.0652 7.32704 19.0758 C7.32704 19.0758 6.66736 20.0864 6.09798 20.7919 C6.09798 20.7919 5.52932 21.4966 4.78955 21.9392 C4.78955 21.9392 4.05051 22.3812 3.12872 22.4338 C3.12872 22.4338 2.20765 22.4863 1.69506 22.3078 C1.69506 22.3078 1.18319 22.1286 0.637102 21.4023 C0.637102 21.4023 0.0910146 20.676 0.0451432 20.0757 C0.0451432 20.0757 0 19.4754 0.455073 18.6864 C0.455073 18.6864 0.910146 17.8968 1.88873 16.9495 C1.88873 16.9495 2.86732 16.0015 3.56122 15.7913 C3.56122 15.7913 4.25511 15.5804 4.78955 15.065 C4.78955 15.065 5.32472 14.5489 4.74441 12.1699 C4.74441 12.1699 4.1641 9.79023 4.45971 8.08497 C4.45971 8.08497 4.75606 6.37972 5.25627 5.42165 C5.25627 5.42165 5.75722 4.46358 6.84939 3.35863 C6.84939 3.35863 7.94157 2.25301 8.77162 1.76859 C8.77162 1.76859 9.6024 1.28416 10.3647 0.884631 C10.3647 0.884631 11.1271 0.484425 11.9688 0.252655 L11.9688 0.252655 Z M4.91479 15.8755 C4.91479 15.8755 4.57403 15.3486 3.15129 16.9912 C3.15129 16.9912 1.72928 18.6332 1.83194 19.2443 C1.83194 19.2443 1.93461 19.8547 2.26444 19.9389 C2.26444 19.9389 2.59428 20.0231 2.93504 19.9497 C2.93504 19.9497 3.27653 19.8756 3.54957 19.6128 C3.54957 19.6128 3.82261 19.3494 4.30026 18.9492 C4.30026 18.9492 4.77863 18.5489 5.05167 17.9385 C5.05167 17.9385 5.32472 17.3281 5.2905 16.8653 C5.2905 16.8653 5.25627 16.4017 4.91479 15.8755 Z" transform="translate(0.573125, 113)"/>
   <path style="fill:#ffffff; fill-rule:evenodd;stroke:none;" id="Text28+1" d="M3.1178 0.589529 C3.1178 0.589529 3.54957 0.210209 4.17502 0.105105 C4.17502 0.105105 4.8012 0 5.2104 0.168437 C5.2104 0.168437 5.62033 0.336874 5.9043 0.768746 C5.9043 0.768746 6.18899 1.19994 7.32631 1.17906 C7.32631 1.17906 8.46436 1.1575 10.1594 1.18916 C10.1594 1.18916 11.8552 1.22083 9.44295 1.28416 C9.44295 1.28416 7.03142 1.3475 6.70086 1.46338 C6.70086 1.46338 6.37102 1.57859 6.42781 2.21057 C6.42781 2.21057 6.48534 2.84187 6.51883 3.54728 C6.51883 3.54728 6.55305 4.2527 6.53048 5.11644 C6.53048 5.11644 6.50791 5.97951 6.39359 6.4006 C6.39359 6.4006 6.28001 6.8217 6.05211 7.28523 C6.05211 7.28523 5.82493 7.7481 5.38151 8.26419 C5.38151 8.26419 4.93809 8.77961 4.28934 9.22158 C4.28934 9.22158 3.64058 9.66356 3.0945 9.88523 C3.0945 9.88523 2.54841 10.1062 1.91131 9.90611 C1.91131 9.90611 1.2742 9.70601 0.875924 9.27481 C0.875924 9.27481 0.478373 8.84294 0.238822 8.38007 C0.238822 8.38007 0 7.91654 0.0342215 6.75836 C0.0342215 6.75836 0.068443 5.60019 0.307265 4.89478 C0.307265 4.89478 0.546088 4.18936 1.0463 3.42129 C1.0463 3.42129 1.54725 2.65254 1.34265 2.7051 C1.34265 2.7051 1.13805 2.75765 1.23998 2.65254 C1.23998 2.65254 1.34265 2.54744 2.02489 1.7477 C2.02489 1.7477 2.70787 0.947289 3.1178 0.589529 L3.1178 0.589529 Z M4.25511 3.89494 C4.25511 3.89494 3.7549 3.32629 3.00348 4.21092 C3.00348 4.21092 2.25279 5.09488 2.10499 6.08462 C2.10499 6.08462 1.95718 7.07435 2.21857 7.47456 C2.21857 7.47456 2.48069 7.87409 2.76466 7.93742 C2.76466 7.93742 3.04935 8.00075 3.57214 7.59044 C3.57214 7.59044 4.09566 7.17946 4.42549 5.81107 C4.42549 5.81107 4.75606 4.44202 4.25511 3.89494 Z" transform="translate(12.2685, 124.159)"/>
   <path style="fill:#ffffff; fill-rule:evenodd;stroke:none;" id="Text28+2" d="M12.8331 0.589529 C12.8331 0.589529 13.9027 0 14.5966 0.252655 C14.5966 0.252655 15.2905 0.505311 15.7797 0.947289 C15.7797 0.947289 16.269 1.38927 16.5304 1.89458 C16.5304 1.89458 16.7926 2.39989 16.4052 3.01098 C16.4052 3.01098 16.0186 3.62139 15.6545 3.32697 C15.6545 3.32697 15.2905 3.03186 14.6643 2.77921 C14.6643 2.77921 14.0388 2.52655 13.527 2.88431 C13.527 2.88431 13.0151 3.24207 12.3554 4.23181 C12.3554 4.23181 11.6957 5.22154 10.8082 6.99013 C10.8082 6.99013 9.92059 8.75872 9.67012 9.55913 C9.67012 9.55913 9.42037 10.3589 10.5803 10.338 C10.5803 10.338 11.7409 10.3164 13.2197 10.338 C13.2197 10.338 14.6992 10.3589 18.9769 10.2645 C18.9769 10.2645 23.2546 10.1695 19.796 10.243 C19.796 10.243 16.3375 10.3164 14.3352 10.7166 C14.3352 10.7166 12.3328 11.1168 11.6273 11.2853 C11.6273 11.2853 10.9218 11.4537 10.1478 11.6855 C10.1478 11.6855 9.3745 11.9166 9.1466 12.1483 C9.1466 12.1483 8.91943 12.3801 8.60051 12.8012 C8.60051 12.8012 8.28233 13.2223 6.46204 18.2336 C6.46204 18.2336 4.64174 23.2443 4.20924 24.3816 C4.20924 24.3816 3.77747 25.5182 3.18551 26.0134 C3.18551 26.0134 2.59355 26.5079 1.74093 26.4446 C1.74093 26.4446 0.887574 26.3813 0.444151 25.5074 C0.444151 25.5074 0 24.6336 0.147808 24.3917 C0.147808 24.3917 0.295615 24.1498 0.466723 24.4975 C0.466723 24.4975 0.637102 24.8444 0.966939 24.9496 C0.966939 24.9496 1.29678 25.0547 1.62661 24.7286 C1.62661 24.7286 1.95645 24.4025 4.3454 18.2437 C4.3454 18.2437 6.73508 12.085 5.30142 12.6537 C5.30142 12.6537 3.86848 13.2223 3.99299 11.959 C3.99299 11.959 4.11823 10.6957 5.30142 10.654 C5.30142 10.654 6.48461 10.6115 6.79187 10.3905 C6.79187 10.3905 7.09914 10.1695 8.06608 7.91654 C8.06608 7.91654 9.03302 5.66352 9.64755 4.53702 C9.64755 4.53702 10.2621 3.41051 11.047 2.31567 C11.047 2.31567 11.8319 1.22083 12.8331 0.589529 Z" transform="translate(16.9787, 113.484)"/>
   <path style="fill:#ffffff; fill-rule:evenodd;stroke:none;" id="Text28+3" d="M4.89222 0.294428 C4.89222 0.294428 5.16526 0 5.75649 0.0424461 C5.75649 0.0424461 6.34845 0.0842185 6.62149 0.37932 C6.62149 0.37932 6.89454 0.673748 7.07657 1.09484 C7.07657 1.09484 7.2586 1.51593 7.00812 1.97947 C7.00812 1.97947 6.75838 2.44234 6.53048 3.18952 C6.53048 3.18952 6.30331 3.93671 5.93925 5.2842 C5.93925 5.2842 5.57519 6.6317 5.98439 6.80014 C5.98439 6.80014 6.39432 6.96857 7.39548 7.13701 C7.39548 7.13701 8.39664 7.30545 10.5919 7.26367 C10.5919 7.26367 12.7879 7.22123 10.3531 7.5581 C10.3531 7.5581 7.91827 7.89498 6.74673 8.16919 C6.74673 8.16919 5.57519 8.44273 5.19948 8.55862 C5.19948 8.55862 4.82377 8.6745 3.92528 10.8958 C3.92528 10.8958 3.02678 13.1165 2.74209 13.8536 C2.74209 13.8536 2.45739 14.5907 2.13848 14.8433 C2.13848 14.8433 1.82029 15.096 1.31935 15.2227 C1.31935 15.2227 0.819131 15.3486 0.409202 15.1802 C0.409202 15.1802 0 15.0118 0.420851 13.8118 C0.420851 13.8118 0.842431 12.6112 1.57055 10.9693 C1.57055 10.9693 2.29866 9.32669 2.36638 8.92716 C2.36638 8.92716 2.43482 8.52695 1.77515 8.63206 C1.77515 8.63206 1.11547 8.73716 0.602881 8.74794 C0.602881 8.74794 0.0910146 8.75872 0.102664 8.15841 C0.102664 8.15841 0.114314 7.5581 0.933446 7.17946 C0.933446 7.17946 1.75258 6.80014 2.38968 6.79003 C2.38968 6.79003 3.02678 6.77925 3.527 5.14743 C3.527 5.14743 4.02794 3.51562 4.11896 2.97931 C4.11896 2.97931 4.20997 2.44234 4.41457 1.51593 C4.41457 1.51593 4.61917 0.589529 4.89222 0.294428 Z" transform="translate(30.0619, 118.853)"/>
   <path style="fill:#ffffff; fill-rule:evenodd;stroke:none;" id="Text28+4" d="M0.0451432 1.24239 C0.0451432 1.24239 0 0.189323 0.716467 0.0949984 C0.716467 0.0949984 1.43293 0 1.92223 0.295101 C1.92223 0.295101 2.41152 0.589529 2.3773 2.91598 C2.3773 2.91598 2.34308 5.24243 3.96969 3.76894 C3.96969 3.76894 5.59703 2.29478 6.63241 1.89525 C6.63241 1.89525 7.6678 1.49505 8.15709 2.30556 C8.15709 2.30556 8.64639 3.11608 8.35004 5.25321 C8.35004 5.25321 8.05443 7.39034 8.54372 6.31638 C8.54372 6.31638 9.03302 5.24243 9.31698 4.46358 C9.31698 4.46358 9.60167 3.68473 10.2162 2.92676 C10.2162 2.92676 10.8307 2.16879 11.7067 1.65338 C11.7067 1.65338 12.5826 1.13729 13.527 2.01114 C13.527 2.01114 14.4713 2.88431 17.3263 2.46322 C17.3263 2.46322 20.1819 2.04213 18.077 2.45312 C18.077 2.45312 15.9727 2.86343 14.3119 2.92676 C14.3119 2.92676 12.651 2.99009 12.0707 3.87472 C12.0707 3.87472 11.4904 4.75868 11.1941 5.62175 C11.1941 5.62175 10.8985 6.48482 9.88564 8.03242 C9.88564 8.03242 8.87356 9.58002 8.35004 9.991 C8.35004 9.991 7.82725 10.4013 7.51999 10.2329 C7.51999 10.2329 7.21272 10.0644 6.72343 9.25392 C6.72343 9.25392 6.23414 8.44273 6.34772 6.52727 C6.34772 6.52727 6.46204 4.61113 5.75649 4.9379 C5.75649 4.9379 5.05095 5.26399 3.33259 7.07502 C3.33259 7.07502 1.61496 8.88538 1.08053 8.8645 C1.08053 8.8645 0.546088 8.84294 0.273044 8.36929 C0.273044 8.36929 0 7.89565 0.295615 6.90591 C0.295615 6.90591 0.591231 5.91618 0.534438 4.93722 C0.534438 4.93722 0.477645 3.95827 0.38663 3.47452 C0.38663 3.47452 0.295615 2.99009 0.192951 2.63233 C0.192951 2.63233 0.0910146 2.2739 0.0451432 1.24239 Z" transform="translate(39.4824, 124.117)"/>
   <path style="fill:#ffffff; fill-rule:evenodd;stroke:none;" id="Text28+5" d="M8.41849 0.125991 C8.41849 0.125991 8.942 0 9.56745 0.0842185 C9.56745 0.0842185 10.1936 0.168437 10.5686 0.441978 C10.5686 0.441978 10.9443 0.71552 11.2858 1.51593 C11.2858 1.51593 11.6273 2.31567 10.9785 2.58989 C10.9785 2.58989 10.3298 2.86343 9.80628 2.40056 C9.80628 2.40056 9.28349 1.93702 8.7141 2.21057 C8.7141 2.21057 8.14544 2.48411 7.5877 2.76843 C7.5877 2.76843 7.03069 3.05275 6.21156 3.66317 C6.21156 3.66317 5.39243 4.27358 4.52743 5.22154 C4.52743 5.22154 3.66316 6.16883 3.57214 6.43227 C3.57214 6.43227 3.48113 6.69503 4.01556 6.35816 C4.01556 6.35816 4.55073 6.02128 5.65383 5.33743 C5.65383 5.33743 6.75765 4.6529 8.43013 3.93738 C8.43013 3.93738 10.1026 3.22119 10.546 3.37952 C10.546 3.37952 10.9902 3.53718 11.3084 3.95827 C11.3084 3.95827 11.6273 4.37936 11.6724 4.68457 C11.6724 4.68457 11.7183 4.98978 11.5698 5.16899 C11.5698 5.16899 11.422 5.34754 11.2283 5.97951 C11.2283 5.97951 11.0353 6.61081 11.2625 7.20034 C11.2625 7.20034 11.4904 7.78987 11.8428 8.01086 C11.8428 8.01086 12.196 8.23185 12.8098 8.13752 C12.8098 8.13752 13.4243 8.04253 14.3228 7.27445 C14.3228 7.27445 15.222 6.50571 14.2434 7.63221 C14.2434 7.63221 13.2656 8.75872 12.6962 9.06393 C12.6962 9.06393 12.1275 9.36914 11.8086 9.35903 C11.8086 9.35903 11.4904 9.34825 10.9785 9.16903 C10.9785 9.16903 10.4667 8.98982 10.0116 8.61117 C10.0116 8.61117 9.55653 8.23185 9.29441 7.68477 C9.29441 7.68477 9.03302 7.13701 8.942 6.87425 C8.942 6.87425 8.85099 6.61081 8.52115 6.2955 C8.52115 6.2955 8.19131 5.97951 7.71294 6.15873 C7.71294 6.15873 7.2353 6.33727 6.04046 7.13768 C6.04046 7.13768 4.84634 7.93742 3.81096 8.45351 C3.81096 8.45351 2.77558 8.96893 1.95645 9.16903 C1.95645 9.16903 1.13732 9.36914 0.898496 9.3058 C0.898496 9.3058 0.659674 9.24247 0.375708 8.83216 C0.375708 8.83216 0.0910146 8.42185 0.0458714 7.93742 C0.0458714 7.93742 0 7.453 0.193679 6.95847 C0.193679 6.95847 0.38663 6.46326 1.64918 4.979 C1.64918 4.979 2.91247 3.49473 4.08401 2.54744 C4.08401 2.54744 5.25627 1.60015 6.57562 0.937183 C6.57562 0.937183 7.8957 0.273542 8.41849 0.125991 Z" transform="translate(52.8386, 123.654)"/>
   <path style="fill:#ffffff; fill-rule:evenodd;stroke:none;" id="Text28+6" d="M2.16178 2.92676 C2.16178 2.92676 2.98091 0 3.74325 0.0633323 C3.74325 0.0633323 4.50559 0.126665 4.89222 0.695308 C4.89222 0.695308 5.27957 1.26328 4.81285 2.09536 C4.81285 2.09536 4.34613 2.92676 4.72184 2.87421 C4.72184 2.87421 5.09754 2.82166 5.71135 2.45312 C5.71135 2.45312 6.32588 2.08458 6.88289 1.86359 C6.88289 1.86359 7.44062 1.6426 7.78211 1.57926 C7.78211 1.57926 8.1236 1.51593 9.09054 1.79015 C9.09054 1.79015 10.0575 2.06369 10.9218 2.55822 C10.9218 2.55822 11.7868 3.05275 13.2088 2.64244 C13.2088 2.64244 14.6308 2.23213 12.9015 2.91665 C12.9015 2.91665 11.1722 3.60051 9.36358 3.55874 C9.36358 3.55874 7.55494 3.51629 6.5647 3.95827 C6.5647 3.95827 5.57519 4.40025 4.89222 4.93722 C4.89222 4.93722 4.20997 5.4742 3.62966 6.70581 C3.62966 6.70581 3.04935 7.93742 2.74209 8.77961 C2.74209 8.77961 2.43482 9.62179 2.196 10.1588 C2.196 10.1588 1.95718 10.6957 1.21741 10.7274 C1.21741 10.7274 0.478373 10.7591 0.23955 10.2329 C0.23955 10.2329 0 9.70601 0.125236 9.54835 C0.125236 9.54835 0.250472 9.3907 0.80821 7.62211 C0.80821 7.62211 1.36595 5.85352 2.16178 2.92676 Z" transform="translate(66.2172, 123.696)"/>
   <path style="fill:#ffffff; fill-rule:evenodd;stroke:none;" id="Text28+7" d="M5.4383 0.105778 C5.4383 0.105778 6.96298 0 7.29282 0.579423 C7.29282 0.579423 7.62265 1.15817 7.60008 2.05291 C7.60008 2.05291 7.57751 2.94765 6.68994 3.56884 C6.68994 3.56884 5.80236 4.19004 4.34613 4.80045 C4.34613 4.80045 3.93693 4.948 3.60709 4.95878 C3.60709 4.95878 3.27725 4.96889 3.061 4.9379 C3.061 4.9379 2.84475 4.90623 2.71952 4.87456 C2.71952 4.87456 2.59428 4.8429 2.57171 4.90623 C2.57171 4.90623 2.16178 5.51665 2.15013 6.12706 C2.15013 6.12706 2.13921 6.73748 2.58263 7.25357 C2.58263 7.25357 3.02678 7.76966 3.57287 7.85388 C3.57287 7.85388 4.11896 7.9381 4.71019 7.82221 C4.71019 7.82221 5.30215 7.70633 6.89454 7.09591 C6.89454 7.09591 8.48766 6.48482 9.11311 5.94852 C9.11311 5.94852 9.73929 5.41154 10.3079 4.90623 C10.3079 4.90623 10.8766 4.40092 10.4667 4.90623 C10.4667 4.90623 10.0575 5.41154 9.4546 6.12774 C9.4546 6.12774 8.85171 6.84326 7.95249 7.54867 C7.95249 7.54867 7.05399 8.25341 6.48534 8.63273 C6.48534 8.63273 5.91668 9.01138 4.97231 9.31726 C4.97231 9.31726 4.02794 9.62246 3.1178 9.50658 C3.1178 9.50658 2.20765 9.3907 1.75258 9.11715 C1.75258 9.11715 1.2975 8.84294 0.910146 8.46429 C0.910146 8.46429 0.523516 8.08497 0.273044 7.56956 C0.273044 7.56956 0.0232997 7.05346 0.0116499 6.15873 C0.0116499 6.15873 0 5.26399 0.466723 4.2116 C0.466723 4.2116 0.933446 3.15853 1.52468 2.4639 C1.52468 2.4639 2.11664 1.76859 3.12872 1.06385 C3.12872 1.06385 4.14153 0.358434 5.4383 0.105778 L5.4383 0.105778 Z M5.4616 2.00036 C5.4616 2.00036 5.30215 1.85281 4.67597 2.14791 C4.67597 2.14791 4.05051 2.44234 3.76582 2.81088 C3.76582 2.81088 3.48185 3.17942 3.66388 3.34785 C3.66388 3.34785 3.84591 3.51629 4.43714 3.21108 C4.43714 3.21108 5.0291 2.90587 5.38151 2.60067 C5.38151 2.60067 5.73465 2.29546 5.4616 2.00036 Z" transform="translate(76.6156, 123.548)"/>
  </g>
 </g>
</svg>
